<svg aria-hidden="true" style="position: absolute; width: 0; height: 0; overflow: hidden;" version="1.1" xmlns="http://www.w3.org/2000/svg" xmlns:xlink="http://www.w3.org/1999/xlink">
<defs>
<symbol id="icon-close" viewBox="0 0 32 32">
<path d="M23.733 10.304l-1.504-1.504-5.963 5.963-5.963-5.963-1.504 1.504 5.963 5.963-5.963 5.963 1.504 1.504 5.963-5.963 5.963 5.963 1.504-1.504-5.963-5.963 5.963-5.963z"></path>
</symbol>
<symbol id="icon-close-modal" viewBox="0 0 32 32">
<path d="M32 3.223l-3.223-3.223-12.777 12.777-12.777-12.777-3.223 3.223 12.777 12.777-12.777 12.777 3.223 3.223 12.777-12.777 12.777 12.777 3.223-3.223-12.777-12.777 12.777-12.777z"></path>
</symbol>
<symbol id="icon-menu" viewBox="0 0 45 32">
<path fill="#fff" style="fill: var(--color1, #fff)" d="M0 5.756v-5.131h45.176v5.131h-45.176zM0 18.583h45.176v-5.131h-45.176v5.131zM0 31.41h45.176v-5.131h-45.176v5.131z"></path>
</symbol>
<symbol id="icon-phone" viewBox="0 0 32 32">
<path fill="#999" style="fill: var(--color5, #999)" d="M31.159 24.687l-6.477-4.32c-0.293-0.196-0.654-0.313-1.042-0.313-0.602 0-1.139 0.282-1.485 0.721l-0.003 0.004-1.888 2.426c-0.149 0.194-0.381 0.318-0.642 0.318-0.143 0-0.278-0.037-0.395-0.103l0.004 0.002-0.361-0.198c-1.188-0.649-2.669-1.455-5.653-4.437-2.98-2.987-3.789-4.467-4.437-5.653l-0.198-0.361c-0.065-0.114-0.104-0.25-0.104-0.396 0-0.261 0.124-0.492 0.315-0.64l0.002-0.001 2.426-1.886c0.443-0.35 0.725-0.887 0.725-1.489 0-0.388-0.117-0.749-0.318-1.050l0.004 0.007-4.32-6.477c-0.342-0.508-0.915-0.838-1.566-0.838-0.358 0-0.692 0.1-0.977 0.273l0.008-0.005-2.709 1.626c-0.841 0.501-1.464 1.293-1.734 2.234l-0.007 0.027c-0.977 3.554-0.243 9.687 8.791 18.722 7.187 7.187 12.538 9.12 16.213 9.12 0.011 0 0.023 0 0.036 0 0.879 0 1.73-0.12 2.537-0.344l-0.066 0.016c0.968-0.277 1.761-0.9 2.252-1.723l0.010-0.017 1.63-2.709c0.168-0.276 0.268-0.61 0.268-0.968 0-0.651-0.331-1.225-0.833-1.562l-0.007-0.004zM30.812 26.675l-1.626 2.709c-0.358 0.614-0.941 1.067-1.626 1.259-3.281 0.902-9.011 0.156-17.685-8.516-8.674-8.674-9.419-14.404-8.518-17.685 0.194-0.687 0.646-1.269 1.261-1.63l2.709-1.623c0.12-0.074 0.266-0.118 0.422-0.118 0.282 0 0.53 0.143 0.677 0.36l0.002 0.003 2.347 3.524 1.969 2.953c0.085 0.127 0.136 0.284 0.136 0.452 0 0.262-0.122 0.495-0.313 0.645l-0.002 0.001-2.423 1.886c-0.448 0.345-0.733 0.88-0.733 1.483 0 0.335 0.088 0.65 0.243 0.922l-0.005-0.009 0.192 0.35c0.683 1.25 1.53 2.805 4.623 5.899s4.646 3.94 5.897 4.621l0.35 0.192c0.263 0.15 0.578 0.239 0.914 0.239 0.602 0 1.137-0.285 1.479-0.727l0.003-0.004 1.886-2.426c0.152-0.192 0.384-0.313 0.645-0.313 0.169 0 0.326 0.051 0.456 0.138l-0.003-0.002 6.477 4.32c0.363 0.241 0.474 0.725 0.247 1.099zM18.133 5.335c5.005 0.005 9.062 4.061 9.067 9.066v0c0 0.295 0.239 0.533 0.533 0.533s0.533-0.239 0.533-0.533v0c-0.005-5.595-4.539-10.129-10.133-10.135h-0.001c-0.295 0-0.533 0.239-0.533 0.533s0.239 0.533 0.533 0.533v0z"></path>
<path fill="#999" style="fill: var(--color5, #999)" d="M18.133 8.535c3.239 0.004 5.863 2.628 5.867 5.866v0c0 0.295 0.239 0.533 0.533 0.533s0.533-0.239 0.533-0.533v0c-0.002-3.829-3.105-6.932-6.933-6.935h-0c-0.295 0-0.533 0.239-0.533 0.533s0.239 0.533 0.533 0.533v0z"></path>
<path fill="#999" style="fill: var(--color5, #999)" d="M18.133 11.735c1.472 0 2.665 1.195 2.667 2.667 0 0.295 0.239 0.533 0.533 0.533s0.533-0.239 0.533-0.533v0c-0.001-2.062-1.672-3.733-3.733-3.735h-0c-0.295 0-0.533 0.239-0.533 0.533s0.239 0.533 0.533 0.533v0z"></path>
</symbol>
<symbol id="icon-email" viewBox="0 0 32 32">
<path fill="#999" style="fill: var(--color5, #999)" d="M28.094 3.823h-24.181c-2.161 0.002-3.911 1.754-3.913 3.915v16.525c0 2.159 1.754 3.915 3.913 3.915h24.175c2.161-0.002 3.913-1.755 3.913-3.917v0-16.516c0-0.003 0-0.006 0-0.009 0-2.159-1.748-3.909-3.906-3.913h-0zM30.219 24.262c0 1.173-0.954 2.127-2.125 2.127h-24.181c-1.174-0.001-2.125-0.953-2.125-2.127 0 0 0 0 0 0v0-16.518c0-1.173 0.954-2.127 2.125-2.127h24.175c1.173 0 2.125 0.954 2.125 2.127v16.518h0.006z"></path>
<path fill="#999" style="fill: var(--color5, #999)" d="M20.181 15.795l7.827-7.019c0.181-0.165 0.294-0.402 0.294-0.665 0-0.231-0.087-0.442-0.231-0.601l0.001 0.001c-0.165-0.181-0.402-0.294-0.665-0.294-0.23 0-0.44 0.087-0.599 0.229l0.001-0.001-10.795 9.685-2.103-1.877c-0.006-0.009-0.013-0.015-0.013-0.021-0.045-0.045-0.093-0.087-0.144-0.126l-0.003-0.002-8.567-7.663c-0.157-0.142-0.367-0.229-0.597-0.229-0.266 0-0.504 0.116-0.668 0.301l-0.001 0.001c-0.142 0.157-0.228 0.366-0.228 0.596 0 0.266 0.117 0.505 0.302 0.669l0.001 0.001 7.919 7.078-7.887 7.381c-0.176 0.164-0.285 0.397-0.285 0.656 0 0.496 0.402 0.897 0.897 0.897 0.237 0 0.452-0.092 0.613-0.242l-0 0 8.006-7.488 2.172 1.939c0.157 0.139 0.364 0.224 0.592 0.224 0.231 0 0.441-0.087 0.6-0.231l-0.001 0.001 2.231-2.001 7.957 7.563c0.16 0.154 0.377 0.249 0.617 0.249 0.256 0 0.488-0.109 0.65-0.282l0-0c0.151-0.16 0.244-0.376 0.244-0.614 0-0.255-0.107-0.485-0.277-0.648l-0-0-7.859-7.465z"></path>
</symbol>
<symbol id="icon-point" viewBox="0 0 32 32">
<path fill="#999" style="fill: var(--color5, #999)" d="M15.979 0c-6.474 0.007-11.721 5.253-11.729 11.726v0.001c0 2.972 1.873 7.168 5.564 12.476 1.85 2.639 3.645 4.923 5.55 7.107l-0.085-0.099 0.7 0.789 0.7-0.789c1.82-2.084 3.613-4.368 5.286-6.743l0.177-0.265c3.691-5.308 5.564-9.504 5.564-12.476-0.009-6.473-5.254-11.718-11.726-11.727h-0.001zM20.617 23.119c-1.615 2.299-3.137 4.265-4.741 6.16l0.103-0.125c-1.498-1.766-3.018-3.727-4.451-5.754l-0.178-0.266c-3.42-4.915-5.227-8.862-5.227-11.407 0.007-5.44 4.416-9.849 9.855-9.856h0.001c5.44 0.007 9.849 4.416 9.856 9.855v0.001c0 2.543-1.805 6.483-5.218 11.392z"></path>
<path fill="#999" style="fill: var(--color5, #999)" d="M15.977 4.335c-3.821 0.004-6.918 3.1-6.923 6.92v0c0.004 3.823 3.102 6.92 6.925 6.923h0c3.821-0.005 6.917-3.102 6.921-6.922v-0c-0.005-3.82-3.1-6.916-6.92-6.921h-0zM15.977 16.307c-2.79-0.001-5.051-2.262-5.054-5.052v-0c0.005-2.789 2.267-5.047 5.056-5.047 0 0 0 0 0 0v0c2.787 0.004 5.046 2.262 5.050 5.049v0c-0.004 2.787-2.262 5.046-5.049 5.050h-0z"></path>
</symbol>
<symbol id="icon-arrow" viewBox="0 0 32 32">
<path fill="#999" style="fill: var(--color5, #999)" d="M10.022 30.090c-0.18 0.184-0.431 0.298-0.708 0.298-0.003 0-0.006 0-0.009-0h0c-0 0-0.001 0-0.001 0-0.562 0-1.018-0.456-1.018-1.018 0-0.281 0.114-0.536 0.299-0.72v0l12.65-12.65-12.65-12.65c-0.184-0.184-0.298-0.439-0.298-0.72 0-0.562 0.456-1.018 1.018-1.018 0.281 0 0.536 0.114 0.72 0.298l13.366 13.37c0.184 0.184 0.299 0.439 0.299 0.72s-0.114 0.536-0.299 0.72v0l-13.37 13.37z"></path>
</symbol>
</defs>
</svg>
