<svg aria-hidden="true" style="position: absolute; width: 0; height: 0; overflow: hidden;" version="1.1" xmlns="http://www.w3.org/2000/svg" xmlns:xlink="http://www.w3.org/1999/xlink">
<defs>
<symbol id="icon-close" viewBox="0 0 32 32">
<path d="M23.733 10.304l-1.504-1.504-5.963 5.963-5.963-5.963-1.504 1.504 5.963 5.963-5.963 5.963 1.504 1.504 5.963-5.963 5.963 5.963 1.504-1.504-5.963-5.963 5.963-5.963z"></path>
</symbol>
<symbol id="icon-menu" viewBox="0 0 45 32">
<path fill="#fff" style="fill: var(--color1, #fff)" d="M0 5.756v-5.131h45.176v5.131h-45.176zM0 18.583h45.176v-5.131h-45.176v5.131zM0 31.41h45.176v-5.131h-45.176v5.131z"></path>
</symbol>
<symbol id="icon-create-website" viewBox="0 0 32 32">
<path fill="#e5e5e5" style="fill: var(--color1, #e5e5e5)" d="M0 0h32v32h-32z"></path>
<path fill="#fff" style="fill: var(--color2, #fff)" d="M-352-1035.2h1536v4514.4h-1536z"></path>
<path fill="none" stroke="#e0e0e0" style="stroke: var(--color3, #e0e0e0)" stroke-linejoin="miter" stroke-linecap="butt" stroke-miterlimit="4" stroke-width="0.8" d="M59.6 16c0 24.080-19.52 43.6-43.6 43.6s-43.6-19.52-43.6-43.6c0-24.080 19.52-43.6 43.6-43.6s43.6 19.52 43.6 43.6z"></path>
<path fill="none" stroke="#4985ff" style="stroke: var(--color4, #4985ff)" stroke-linejoin="miter" stroke-linecap="butt" stroke-miterlimit="4" stroke-width="0.8" d="M51.6 16c0 19.661-15.939 35.6-35.6 35.6s-35.6-15.939-35.6-35.6c0-19.661 15.939-35.6 35.6-35.6s35.6 15.939 35.6 35.6z"></path>
<path fill="#4985ff" style="fill: var(--color4, #4985ff); stroke: var(--color4, #4985ff)" stroke="#4985ff" stroke-linejoin="miter" stroke-linecap="butt" stroke-miterlimit="4" stroke-width="0.8" d="M7.6 0.666h23.733v29.73c0 0.004 0 0.009 0 0.013 0 0.49-0.381 0.891-0.863 0.923l-0.003 0h-0.026c-0.040 0-0.144-0.004-0.147-0.005h-0.022c-0.124-0.003-0.243-0.011-0.359-0.024l0.018 0.002c-1.922-0.227-3.428-1.743-3.64-3.649l-0.002-0.019-0.002-0.008v-0.008c-0.014-0.126-0.022-0.273-0.022-0.421 0-0 0-0.001 0-0.001v0M7.599 0.666l19.067 26.534M7.599 0.666v7.467M7.599 0.666v7.467M26.266 27.199h0.4M26.266 27.199h0.4M26.266 27.199v-1.066c0-0.074-0.060-0.134-0.134-0.134v0h-18.534v-9.6M26.666 27.2v-1.066c0-0.295-0.239-0.534-0.534-0.534v0h-18.134v-9.2h-0.4M7.599 16.4h-0.266M7.599 16.4v-0.4M7.599 16h-0.266v0.4M7.599 16l-0.666 9.6v-9.2h0.4M7.599 16v-7.866M7.333 16.4v9.6h-4.666c-0.074 0-0.134 0.060-0.134 0.134v0 1.066c0.003 2.429 1.971 4.397 4.4 4.4h23.515c0.64-0.020 1.152-0.544 1.152-1.187 0-0.003 0-0.007-0-0.010v0-29.87c0-0.074-0.060-0.134-0.134-0.134v0h-24c-0.074 0-0.134 0.060-0.134 0.134v0 7.6h0.266M26.296 27.674c0 0.001 0 0 0 0zM6.932 31.334l21.583 0.002-0.882-0.712c-0.247-0.201-0.465-0.421-0.657-0.662l-0.020-0.026-0.004-0.004-0.003-0.005c-0.081-0.102-0.164-0.217-0.242-0.336l-0.010-0.017c-0.015-0.027-0.026-0.047-0.038-0.066l0.004 0.006c-0.063-0.097-0.13-0.215-0.191-0.336l-0.011-0.024-0.002-0.005-0.003-0.006-0.008-0.018c-0.052-0.103-0.109-0.234-0.16-0.368l-0.010-0.029-0.002-0.002c-0.046-0.117-0.093-0.265-0.131-0.417l-0.006-0.028-0.014-0.052c-0.004-0.012-0.009-0.035-0.014-0.058l-0.002-0.010-0.001-0.002c-0.021-0.089-0.043-0.208-0.059-0.328l-0.002-0.022v-0.002l-0.012-0.077c-0.002-0.012-0.005-0.028-0.006-0.044l-0-0.002v-0.003c-0.017-0.144-0.028-0.311-0.029-0.481v-0.934h-23.2v0.934c0.002 2.282 1.851 4.131 4.133 4.134h0z"></path>
<path fill="#4985ff" style="fill: var(--color4, #4985ff); stroke: var(--color4, #4985ff)" stroke="#4985ff" stroke-linejoin="miter" stroke-linecap="butt" stroke-miterlimit="4" stroke-width="0.8" d="M17.745 10.467l-0.466-0.467h0.322c0.035 0 0.069 0.014 0.094 0.039l2.133 2.134c0.024 0.024 0.039 0.057 0.039 0.094s-0.015 0.070-0.039 0.094v0l-2.133 2.134c-0.024 0.024-0.057 0.039-0.094 0.039-0 0-0 0-0 0v0h-0.322l2.266-2.267-0.283-0.282-1.517-1.517zM17.238 10l-0.542 2.17-0.024 0.097 0.024 0.098 0.542 2.17h-14.571c-1.252 0-2.267-1.015-2.267-2.267s1.015-2.267 2.267-2.267h14.571zM4.266 10.266h-0.4v4h13.030l-0.124-0.496-0.266-1.067-0.076-0.303h-10.696v-0.266h10.696l0.342-1.37 0.124-0.498h-12.63zM3.6 10.666v-0.4h-0.934c-1.105 0-2 0.895-2 2s0.895 2 2 2h0.934v-3.6zM28.266 6.266c-0.037 0-0.070 0.016-0.094 0.040l-0 0 0.094-0.040zM28.266 6.266c0.074 0 0.133 0.060 0.133 0.134v16c0 0 0 0 0 0 0 0.073-0.059 0.133-0.133 0.134h-16c-0.001 0-0.001 0-0.002 0-0.073 0-0.133-0.059-0.133-0.133 0-0.037 0.015-0.071 0.040-0.095l16-16 0.094-0.038zM28.133 7.687v-0.966l-15.545 15.545h2.745v-1.066h0.266v1.066h1.867v-1.066h0.266v1.066h1.866v-1.066h0.267v1.066h1.866v-1.066h0.266v1.066h1.867v-1.066h0.266v1.066h1.866v-1.066h0.267v1.066h1.866v-1.866h-1.066v-0.266h1.066v-1.867h-1.066v-0.266h1.066v-1.866h-1.066v-0.267h1.066v-1.866h-1.066v-0.266h1.066v-1.867h-1.066v-0.266h1.066v-1.866h-1.066v-0.267h1.066v-1.778z"></path>
<path fill="#4985ff" style="fill: var(--color4, #4985ff); stroke: var(--color4, #4985ff)" stroke="#4985ff" stroke-linejoin="miter" stroke-linecap="butt" stroke-miterlimit="4" stroke-width="0.8" d="M25.067 13.992c0.074 0 0.134 0.060 0.134 0.134v5.074c0 0.074-0.060 0.134-0.134 0.134v0h-5.074c-0.074-0-0.133-0.060-0.133-0.134 0-0.037 0.015-0.070 0.039-0.094v0l5.074-5.074c0.024-0.024 0.057-0.039 0.094-0.039 0 0 0 0 0 0v0zM24.934 15.414v-0.966l-4.618 4.618h4.618v-3.653zM14.267 3.6h9.866v0.266h-9.866v-0.266zM12.667 5.734h13.066v0.266h-13.066v-0.266zM9.467 16.933h2.4v0.267h-2.4v-0.267zM9.467 19.067h1.334v0.266h-1.334v-0.267z"></path>
</symbol>
<symbol id="icon-phone" viewBox="0 0 32 32">
<path fill="#999" style="fill: var(--color5, #999)" d="M31.159 24.687l-6.477-4.32c-0.293-0.196-0.654-0.313-1.042-0.313-0.602 0-1.139 0.282-1.485 0.721l-0.003 0.004-1.888 2.426c-0.149 0.194-0.381 0.318-0.642 0.318-0.143 0-0.278-0.037-0.395-0.103l0.004 0.002-0.361-0.198c-1.188-0.649-2.669-1.455-5.653-4.437-2.98-2.987-3.789-4.467-4.437-5.653l-0.198-0.361c-0.065-0.114-0.104-0.25-0.104-0.396 0-0.261 0.124-0.492 0.315-0.64l0.002-0.001 2.426-1.886c0.443-0.35 0.725-0.887 0.725-1.489 0-0.388-0.117-0.749-0.318-1.050l0.004 0.007-4.32-6.477c-0.342-0.508-0.915-0.838-1.566-0.838-0.358 0-0.692 0.1-0.977 0.273l0.008-0.005-2.709 1.626c-0.841 0.501-1.464 1.293-1.734 2.234l-0.007 0.027c-0.977 3.554-0.243 9.687 8.791 18.722 7.187 7.187 12.538 9.12 16.213 9.12 0.011 0 0.023 0 0.036 0 0.879 0 1.73-0.12 2.537-0.344l-0.066 0.016c0.968-0.277 1.761-0.9 2.252-1.723l0.010-0.017 1.63-2.709c0.168-0.276 0.268-0.61 0.268-0.968 0-0.651-0.331-1.225-0.833-1.562l-0.007-0.004zM30.812 26.675l-1.626 2.709c-0.358 0.614-0.941 1.067-1.626 1.259-3.281 0.902-9.011 0.156-17.685-8.516-8.674-8.674-9.419-14.404-8.518-17.685 0.194-0.687 0.646-1.269 1.261-1.63l2.709-1.623c0.12-0.074 0.266-0.118 0.422-0.118 0.282 0 0.53 0.143 0.677 0.36l0.002 0.003 2.347 3.524 1.969 2.953c0.085 0.127 0.136 0.284 0.136 0.452 0 0.262-0.122 0.495-0.313 0.645l-0.002 0.001-2.423 1.886c-0.448 0.345-0.733 0.88-0.733 1.483 0 0.335 0.088 0.65 0.243 0.922l-0.005-0.009 0.192 0.35c0.683 1.25 1.53 2.805 4.623 5.899s4.646 3.94 5.897 4.621l0.35 0.192c0.263 0.15 0.578 0.239 0.914 0.239 0.602 0 1.137-0.285 1.479-0.727l0.003-0.004 1.886-2.426c0.152-0.192 0.384-0.313 0.645-0.313 0.169 0 0.326 0.051 0.456 0.138l-0.003-0.002 6.477 4.32c0.363 0.241 0.474 0.725 0.247 1.099zM18.133 5.335c5.005 0.005 9.062 4.061 9.067 9.066v0c0 0.295 0.239 0.533 0.533 0.533s0.533-0.239 0.533-0.533v0c-0.005-5.595-4.539-10.129-10.133-10.135h-0.001c-0.295 0-0.533 0.239-0.533 0.533s0.239 0.533 0.533 0.533v0z"></path>
<path fill="#999" style="fill: var(--color5, #999)" d="M18.133 8.535c3.239 0.004 5.863 2.628 5.867 5.866v0c0 0.295 0.239 0.533 0.533 0.533s0.533-0.239 0.533-0.533v0c-0.002-3.829-3.105-6.932-6.933-6.935h-0c-0.295 0-0.533 0.239-0.533 0.533s0.239 0.533 0.533 0.533v0z"></path>
<path fill="#999" style="fill: var(--color5, #999)" d="M18.133 11.735c1.472 0 2.665 1.195 2.667 2.667 0 0.295 0.239 0.533 0.533 0.533s0.533-0.239 0.533-0.533v0c-0.001-2.062-1.672-3.733-3.733-3.735h-0c-0.295 0-0.533 0.239-0.533 0.533s0.239 0.533 0.533 0.533v0z"></path>
</symbol>
<symbol id="icon-email" viewBox="0 0 32 32">
<path fill="#999" style="fill: var(--color5, #999)" d="M28.094 3.823h-24.181c-2.161 0.002-3.911 1.754-3.913 3.915v16.525c0 2.159 1.754 3.915 3.913 3.915h24.175c2.161-0.002 3.913-1.755 3.913-3.917v0-16.516c0-0.003 0-0.006 0-0.009 0-2.159-1.748-3.909-3.906-3.913h-0zM30.219 24.262c0 1.173-0.954 2.127-2.125 2.127h-24.181c-1.174-0.001-2.125-0.953-2.125-2.127 0 0 0 0 0 0v0-16.518c0-1.173 0.954-2.127 2.125-2.127h24.175c1.173 0 2.125 0.954 2.125 2.127v16.518h0.006z"></path>
<path fill="#999" style="fill: var(--color5, #999)" d="M20.181 15.795l7.827-7.019c0.181-0.165 0.294-0.402 0.294-0.665 0-0.231-0.087-0.442-0.231-0.601l0.001 0.001c-0.165-0.181-0.402-0.294-0.665-0.294-0.23 0-0.44 0.087-0.599 0.229l0.001-0.001-10.795 9.685-2.103-1.877c-0.006-0.009-0.013-0.015-0.013-0.021-0.045-0.045-0.093-0.087-0.144-0.126l-0.003-0.002-8.567-7.663c-0.157-0.142-0.367-0.229-0.597-0.229-0.266 0-0.504 0.116-0.668 0.301l-0.001 0.001c-0.142 0.157-0.228 0.366-0.228 0.596 0 0.266 0.117 0.505 0.302 0.669l0.001 0.001 7.919 7.078-7.887 7.381c-0.176 0.164-0.285 0.397-0.285 0.656 0 0.496 0.402 0.897 0.897 0.897 0.237 0 0.452-0.092 0.613-0.242l-0 0 8.006-7.488 2.172 1.939c0.157 0.139 0.364 0.224 0.592 0.224 0.231 0 0.441-0.087 0.6-0.231l-0.001 0.001 2.231-2.001 7.957 7.563c0.16 0.154 0.377 0.249 0.617 0.249 0.256 0 0.488-0.109 0.65-0.282l0-0c0.151-0.16 0.244-0.376 0.244-0.614 0-0.255-0.107-0.485-0.277-0.648l-0-0-7.859-7.465z"></path>
</symbol>
<symbol id="icon-point" viewBox="0 0 32 32">
<path fill="#999" style="fill: var(--color5, #999)" d="M15.979 0c-6.474 0.007-11.721 5.253-11.729 11.726v0.001c0 2.972 1.873 7.168 5.564 12.476 1.85 2.639 3.645 4.923 5.55 7.107l-0.085-0.099 0.7 0.789 0.7-0.789c1.82-2.084 3.613-4.368 5.286-6.743l0.177-0.265c3.691-5.308 5.564-9.504 5.564-12.476-0.009-6.473-5.254-11.718-11.726-11.727h-0.001zM20.617 23.119c-1.615 2.299-3.137 4.265-4.741 6.16l0.103-0.125c-1.498-1.766-3.018-3.727-4.451-5.754l-0.178-0.266c-3.42-4.915-5.227-8.862-5.227-11.407 0.007-5.44 4.416-9.849 9.855-9.856h0.001c5.44 0.007 9.849 4.416 9.856 9.855v0.001c0 2.543-1.805 6.483-5.218 11.392z"></path>
<path fill="#999" style="fill: var(--color5, #999)" d="M15.977 4.335c-3.821 0.004-6.918 3.1-6.923 6.92v0c0.004 3.823 3.102 6.92 6.925 6.923h0c3.821-0.005 6.917-3.102 6.921-6.922v-0c-0.005-3.82-3.1-6.916-6.92-6.921h-0zM15.977 16.307c-2.79-0.001-5.051-2.262-5.054-5.052v-0c0.005-2.789 2.267-5.047 5.056-5.047 0 0 0 0 0 0v0c2.787 0.004 5.046 2.262 5.050 5.049v0c-0.004 2.787-2.262 5.046-5.049 5.050h-0z"></path>
</symbol>
<symbol id="icon-play-button" viewBox="0 0 32 32">
<path fill="#fff" style="fill: var(--color2, #fff)" d="M16 0c-8.836 0-16 7.163-16 16s7.164 16 16 16c8.836 0 16-7.163 16-16s-7.164-16-16-16zM21.53 16.848l-8 5c-0.15 0.095-0.333 0.152-0.53 0.152-0.552 0-1-0.447-1.001-1v-10c0-0 0-0.001 0-0.001 0-0.552 0.447-0.999 0.999-0.999 0.197 0 0.38 0.057 0.535 0.155l-0.004-0.002 8 5c0.284 0.18 0.469 0.492 0.469 0.848s-0.185 0.668-0.465 0.846l-0.004 0.002z"></path>
</symbol>
<symbol id="icon-arrow" viewBox="0 0 32 32">
<path fill="#999" style="fill: var(--color5, #999)" d="M10.022 30.090c-0.18 0.184-0.431 0.298-0.708 0.298-0.003 0-0.006 0-0.009-0h0c-0 0-0.001 0-0.001 0-0.562 0-1.018-0.456-1.018-1.018 0-0.281 0.114-0.536 0.299-0.72v0l12.65-12.65-12.65-12.65c-0.184-0.184-0.298-0.439-0.298-0.72 0-0.562 0.456-1.018 1.018-1.018 0.281 0 0.536 0.114 0.72 0.298l13.366 13.37c0.184 0.184 0.299 0.439 0.299 0.72s-0.114 0.536-0.299 0.72v0l-13.37 13.37z"></path>
</symbol>
<symbol id="icon-web" viewBox="0 0 32 32">
<path fill="#4985ff" style="fill: var(--color4, #4985ff); stroke: var(--color4, #4985ff)" stroke="#4985ff" stroke-linejoin="miter" stroke-linecap="butt" stroke-miterlimit="4" stroke-width="1.0667" d="M12.622 21.893v0.007l-3.421-2.915 0.004-0.003-0.339-0.399M12.623 21.893l0.004-5.82-0.004 0.004v-0.007h0.001l-3.418 2.911-0.341-0.398M8.866 18.583l3.419-2.911 0.685 5.822c0.114 0.097 0.186 0.241 0.186 0.402 0 0.292-0.236 0.528-0.528 0.528-0.131 0-0.251-0.048-0.343-0.127l0.001 0.001-3.421-2.911c-0.114-0.097-0.186-0.241-0.186-0.402s0.072-0.305 0.185-0.402l0.001-0.001z"></path>
<path fill="#4985ff" style="fill: var(--color4, #4985ff)" d="M19.374 22.425c-0 0-0 0-0 0-0.292 0-0.528-0.236-0.528-0.528 0-0.161 0.072-0.305 0.185-0.402l0.001-0.001 2.946-2.509-2.946-2.509c-0.114-0.097-0.186-0.241-0.186-0.402 0-0.292 0.236-0.528 0.528-0.528 0.131 0 0.251 0.048 0.343 0.127l-0.001-0.001 3.419 2.911c0.114 0.097 0.186 0.241 0.186 0.402s-0.072 0.305-0.185 0.402l-0.001 0.001-3.419 2.912c-0.091 0.078-0.21 0.125-0.34 0.125-0 0-0.001 0-0.001 0h0z"></path>
<path fill="#4985ff" style="fill: var(--color4, #4985ff)" d="M18.972 22.24l0.814-0.691-0.002-0.002-0.811 0.693zM19.031 21.494v0zM21.978 18.986l0.691 0.812 0.954-0.812-0.954-0.812-0.691 0.812zM19.031 16.477v-0.001zM18.972 15.732v0zM19.716 15.673l-0.693 0.811 0.002 0.001 0.691-0.812zM23.135 18.583v0zM23.135 19.388v0zM19.716 22.3l-0.691-0.813 0.691 0.812zM19.375 21.358c0.149 0 0.303 0.064 0.411 0.191l-1.627 1.38c0.316 0.373 0.767 0.562 1.216 0.562v-2.133zM19.783 21.547c0.080 0.093 0.129 0.216 0.129 0.35 0 0.164-0.073 0.31-0.188 0.409l-0.001 0.001-1.385-1.623c-0.344 0.294-0.56 0.729-0.56 1.214 0 0.396 0.144 0.758 0.383 1.037l-0.002-0.002 1.623-1.385zM19.723 22.306l2.946-2.509-1.382-1.623-2.946 2.509 1.382 1.623zM22.669 18.174l-2.946-2.509-1.382 1.623 2.946 2.509 1.382-1.623zM19.723 15.664c0.227 0.193 0.254 0.533 0.062 0.759l-1.625-1.382c-0.236 0.276-0.38 0.638-0.38 1.034 0 0.485 0.217 0.92 0.558 1.212l0.002 0.002 1.382-1.623zM19.785 16.423c-0.099 0.116-0.246 0.189-0.41 0.189-0.134 0-0.257-0.049-0.351-0.13l0.001 0.001 1.385-1.621c-0.277-0.237-0.639-0.381-1.035-0.381-0.485 0-0.92 0.217-1.212 0.558l-0.002 0.002 1.625 1.382zM19.025 16.484l3.419 2.912 1.382-1.625-3.419-2.912-1.382 1.625zM22.443 19.395c-0.116-0.099-0.189-0.246-0.189-0.41 0 0 0 0 0-0v0h2.133c0-0.467-0.205-0.911-0.56-1.214l-1.385 1.623zM22.254 18.986c0-0.158 0.069-0.307 0.189-0.41l1.385 1.623c0.355-0.303 0.56-0.747 0.56-1.214h-2.133zM22.444 18.576l-3.419 2.911 1.382 1.625 3.419-2.912-1.382-1.623zM19.025 21.487c0.094-0.080 0.216-0.128 0.349-0.128 0 0 0 0 0.001 0h-0v2.133c0.365 0 0.734-0.127 1.033-0.381l-1.382-1.625z"></path>
<path fill="#4985ff" style="fill: var(--color4, #4985ff)" d="M14.789 24.608c-0 0-0.001 0-0.001 0-0.292 0-0.528-0.236-0.528-0.528 0-0.039 0.004-0.077 0.012-0.113l-0.001 0.003 2.13-10.115c0.052-0.241 0.264-0.419 0.517-0.419 0.292 0 0.529 0.237 0.529 0.529 0 0.039-0.004 0.076-0.012 0.113l0.001-0.004-2.131 10.115c-0.052 0.241-0.263 0.42-0.516 0.42h-0z"></path>
<path fill="#4985ff" style="fill: var(--color4, #4985ff)" d="M14.679 24.597l-0.22 1.043h0.003l0.217-1.043zM14.272 23.971v0zM16.402 13.855v0zM17.028 13.447v0zM17.437 14.074v0zM15.306 24.189v0zM14.789 23.542c0.039 0 0.076 0.003 0.108 0.011l-0.434 2.089c0.106 0.021 0.214 0.034 0.326 0.034v-2.133zM14.9 23.553c0.246 0.053 0.428 0.269 0.428 0.527 0 0.039-0.004 0.078-0.012 0.114l0.001-0.004-2.089-0.439c-0.022 0.099-0.034 0.212-0.034 0.329 0 0.764 0.538 1.403 1.256 1.559l0.011 0.002 0.441-2.087zM15.316 24.191l2.13-10.115-2.087-0.441-2.131 10.116 2.087 0.439zM17.446 14.076c-0.053 0.246-0.269 0.428-0.527 0.428-0.039 0-0.078-0.004-0.114-0.012l0.004 0.001 0.439-2.089c-0.099-0.022-0.212-0.034-0.329-0.034-0.764 0-1.403 0.538-1.559 1.256l-0.002 0.011 2.087 0.441zM16.809 14.492c-0.246-0.053-0.428-0.269-0.428-0.527 0-0.039 0.004-0.078 0.012-0.114l-0.001 0.004 2.087 0.439c0.022-0.099 0.034-0.213 0.034-0.33 0-0.764-0.538-1.403-1.256-1.559l-0.011-0.002-0.439 2.087zM16.393 13.854l-2.13 10.115 2.087 0.439 2.13-10.115-2.087-0.439zM14.262 23.969c0.053-0.254 0.277-0.427 0.527-0.427v2.133c0.739 0 1.402-0.515 1.561-1.266l-2.087-0.441z"></path>
<path fill="#4985ff" style="fill: var(--color4, #4985ff)" d="M28.452 30.119h-24.906c-1.958-0.003-3.544-1.589-3.547-3.546v-21.138c0.002-1.958 1.589-3.545 3.546-3.548h24.907c1.958 0.003 3.544 1.59 3.547 3.547v21.138c-0.003 1.958-1.59 3.544-3.547 3.547h-0zM3.547 2.944c-1.374 0.002-2.488 1.116-2.49 2.49v21.138c0.002 1.374 1.115 2.488 2.489 2.491h24.907c1.374-0.002 2.488-1.116 2.49-2.491v-21.138c-0.002-1.375-1.116-2.489-2.491-2.491h-24.906z"></path>
<path fill="#4985ff" style="fill: var(--color4, #4985ff)" d="M28.452 29.053h-24.906v2.133h24.907v-2.133zM3.547 29.053c-1.368-0.003-2.477-1.112-2.48-2.48v-0h-2.133c0.003 2.547 2.067 4.61 4.613 4.613h0v-2.133zM1.067 26.573v-21.138h-2.133v21.138h2.133zM1.067 5.435c0.002-1.369 1.111-2.478 2.48-2.481h0v-2.133c-2.547 0.003-4.611 2.067-4.613 4.614v0h2.133zM3.547 2.954h24.907v-2.133h-24.908v2.133zM28.453 2.954c1.369 0.003 2.478 1.112 2.48 2.481v0h2.133c-0.002-2.547-2.067-4.612-4.614-4.614h-0v2.133zM30.933 5.435v21.138h2.133v-21.138h-2.133zM30.933 26.573c-0.003 1.369-1.112 2.478-2.481 2.48h-0v2.133c2.547-0.002 4.611-2.066 4.614-4.613v-0h-2.133zM3.547 1.877c-1.963 0.002-3.554 1.594-3.556 3.557v0h2.133c0-0.785 0.64-1.424 1.423-1.424v-2.133zM-0.010 5.435v21.138h2.133v-21.138h-2.133zM-0.010 26.573c0.002 1.964 1.593 3.555 3.556 3.557h0v-2.133c-0.784 0-1.423-0.64-1.423-1.424h-2.133zM3.547 30.13h24.907v-2.133h-24.908v2.133zM28.453 30.13c1.963-0.002 3.554-1.594 3.556-3.557v-0h-2.133c0 0.784-0.64 1.424-1.424 1.424v2.133zM32.010 26.573v-21.138h-2.133v21.138h2.133zM32.010 5.435c-0.002-1.964-1.593-3.555-3.557-3.557h-0v2.133c0.785 0 1.424 0.64 1.424 1.424h2.133zM28.452 1.877h-24.906v2.133h24.907v-2.133z"></path>
<path fill="#4985ff" style="fill: var(--color4, #4985ff)" d="M31.472 10.347h-30.944c-0.292 0-0.529-0.237-0.529-0.529s0.237-0.529 0.529-0.529v0h30.944c0.292 0 0.528 0.236 0.528 0.528s-0.236 0.528-0.528 0.528v0z"></path>
<path fill="#4985ff" style="fill: var(--color4, #4985ff)" d="M31.472 9.28h-30.944v2.133h30.944v-2.133zM0.528 9.28c0.298 0 0.539 0.241 0.539 0.538h-2.133c0 0.881 0.715 1.596 1.595 1.596v-2.133zM1.067 9.818c0 0.297-0.241 0.539-0.539 0.539v0-2.133c-0.88 0-1.595 0.715-1.595 1.595h2.133zM0.528 10.356h30.944v-2.133h-30.944v2.133zM31.472 10.356c-0.297 0-0.539-0.241-0.539-0.539v0h2.133c0-0.88-0.714-1.595-1.595-1.595v2.133zM30.933 9.818c0-0.297 0.241-0.538 0.539-0.538v2.133c0.881 0 1.595-0.715 1.595-1.596h-2.133z"></path>
<path fill="#4985ff" style="fill: var(--color4, #4985ff)" d="M9.026 7.819c-0.923-0.002-1.67-0.75-1.671-1.672v-0c0.002-0.922 0.749-1.67 1.671-1.671h0c0.922 0.002 1.67 0.749 1.671 1.671v0c-0.001 0.923-0.749 1.671-1.671 1.673h-0zM9.026 5.531c-0.34 0-0.616 0.276-0.616 0.617s0.276 0.617 0.617 0.617c0 0 0 0 0.001 0h-0c0.34-0 0.616-0.276 0.616-0.617s-0.276-0.617-0.617-0.617c-0 0-0 0-0.001 0h0z"></path>
<path fill="#4985ff" style="fill: var(--color4, #4985ff)" d="M9.026 6.752c-0.334-0.002-0.604-0.272-0.605-0.606v-0h-2.133c0.001 1.512 1.226 2.737 2.738 2.739h0v-2.133zM8.421 6.146c0.002-0.333 0.271-0.603 0.605-0.605h0v-2.133c-1.511 0.002-2.736 1.227-2.738 2.738v0h2.133zM9.026 5.541c0.333 0.002 0.603 0.271 0.605 0.605v0h2.133c-0.002-1.511-1.227-2.736-2.738-2.738h-0v2.133zM9.631 6.146c-0.001 0.334-0.271 0.604-0.605 0.606h-0v2.133c1.512-0.002 2.737-1.227 2.738-2.739v-0h-2.133zM9.026 4.464c-0.928 0-1.682 0.753-1.682 1.682h2.133c0 0.251-0.202 0.451-0.451 0.451v-2.133zM7.344 6.146c0 0.928 0.754 1.682 1.682 1.682v-2.133c0.25 0 0.451 0.202 0.451 0.451h-2.133zM9.026 7.829c0.928 0 1.682-0.753 1.682-1.682h-2.133c0-0.25 0.202-0.451 0.451-0.451v2.133zM10.708 6.147c0-0.928-0.754-1.682-1.682-1.682v2.133c-0.249 0-0.451-0.202-0.451-0.451h2.133z"></path>
<path fill="#4985ff" style="fill: var(--color4, #4985ff)" d="M3.89 7.802c-0.922-0.002-1.67-0.749-1.671-1.671v-0c0.002-0.922 0.749-1.67 1.671-1.671h0c0.923 0.001 1.671 0.749 1.673 1.671v0c-0.002 0.923-0.75 1.67-1.672 1.671h-0zM3.89 5.515c-0.34 0.001-0.615 0.276-0.615 0.617s0.276 0.617 0.617 0.617c0 0 0.001 0 0.001 0h-0c0.34-0.001 0.615-0.276 0.615-0.617s-0.276-0.617-0.617-0.617c-0 0-0.001 0-0.001 0h0z"></path>
<path fill="#4985ff" style="fill: var(--color4, #4985ff)" d="M3.89 6.735c-0.333-0.002-0.603-0.271-0.605-0.605v-0h-2.133c0.002 1.511 1.227 2.736 2.738 2.738h0v-2.133zM3.285 6.13c0.002-0.333 0.272-0.603 0.605-0.605h0v-2.133c-1.512 0.002-2.736 1.227-2.738 2.738v0h2.133zM3.89 5.525c0.334 0.001 0.604 0.271 0.606 0.605v0h2.133c-0.002-1.512-1.227-2.737-2.739-2.738h-0v2.133zM4.496 6.13c-0.002 0.334-0.272 0.604-0.606 0.605h-0v2.133c1.512-0.001 2.737-1.226 2.739-2.738v-0h-2.133zM3.89 4.448c-0.928 0-1.681 0.754-1.681 1.682h2.133c0 0 0 0.001 0 0.001 0 0.249-0.202 0.45-0.45 0.45-0.001 0-0.002 0-0.002 0h0v-2.133zM2.209 6.13c0 0.928 0.754 1.682 1.681 1.682v-2.133c0.251 0 0.452 0.202 0.452 0.451h-2.133zM3.89 7.812c0.928 0 1.682-0.754 1.682-1.682h-2.133c0-0.25 0.203-0.451 0.451-0.451v2.133zM5.572 6.13c0-0.928-0.753-1.682-1.682-1.682v2.133c-0 0-0.001 0-0.001 0-0.249 0-0.45-0.202-0.45-0.45 0-0 0-0.001 0-0.001v0h2.133z"></path>
<path fill="#4985ff" style="fill: var(--color4, #4985ff)" d="M14.163 7.834c-0.922-0.002-1.67-0.749-1.671-1.671v-0c0.002-0.922 0.749-1.67 1.671-1.671h0c0.922 0.002 1.67 0.749 1.671 1.671v0c-0.002 0.922-0.749 1.67-1.671 1.671h-0zM14.163 5.547c-0.34 0.001-0.615 0.276-0.615 0.616s0.276 0.616 0.616 0.616c0 0 0.001 0 0.001 0h-0c0.34-0.001 0.615-0.276 0.615-0.616s-0.276-0.616-0.616-0.616c-0 0-0.001 0-0.001 0h0z"></path>
<path fill="#4985ff" style="fill: var(--color4, #4985ff)" d="M14.163 6.767c-0.333-0.002-0.603-0.271-0.605-0.605v-0h-2.133c0.002 1.511 1.227 2.736 2.738 2.738h0v-2.133zM13.558 6.162c0-0.333 0.272-0.605 0.605-0.605v-2.133c-1.511 0.002-2.736 1.227-2.738 2.738v0h2.133zM14.163 5.557c0.333 0.002 0.603 0.271 0.605 0.605v0h2.133c-0.002-1.511-1.227-2.736-2.738-2.738h-0v2.133zM14.768 6.162c-0.002 0.333-0.271 0.603-0.605 0.605h-0v2.133c1.511-0.002 2.736-1.227 2.738-2.738v-0h-2.133zM14.163 4.48c-0.928 0-1.682 0.754-1.682 1.682h2.133c0 0.249-0.202 0.451-0.451 0.451v0-2.133zM12.481 6.162c0 0.928 0.754 1.682 1.682 1.682v-2.133c0.251 0 0.451 0.203 0.451 0.451h-2.133zM14.163 7.844c0.928 0 1.682-0.754 1.682-1.682h-2.133c0-0.25 0.202-0.451 0.451-0.451v2.133zM15.845 6.162c0-0.928-0.754-1.682-1.682-1.682v2.133c-0.249 0-0.451-0.202-0.451-0.451v0h2.133z"></path>
</symbol>
</defs>
</svg>
